<?xml version="1.0" encoding="UTF-8" standalone="no"?>
<!DOCTYPE svg PUBLIC "-//W3C//DTD SVG 1.1//EN" "http://www.w3.org/Graphics/SVG/1.1/DTD/svg11.dtd">
<svg width="100%" height="100%" viewBox="0 0 2551 1309" version="1.1" xmlns="http://www.w3.org/2000/svg" xmlns:xlink="http://www.w3.org/1999/xlink" xml:space="preserve" xmlns:serif="http://www.serif.com/" style="fill-rule:evenodd;clip-rule:evenodd;stroke-linejoin:round;stroke-miterlimit:2;">
    <g transform="matrix(1,0,0,1,-11909,-13421)">
        <g id="Artboard1" transform="matrix(1,0,0,0.39614,11909.1,13421.8)">
            <rect x="0" y="0" width="2550" height="3300" style="fill:none;"/>
            <g transform="matrix(1.09878,0,0,1.09878,-122.892,-206.678)">
                <g transform="matrix(1,0,0,2.52436,-110.98,-879.276)">
                    <path d="M2338.38,584.696C2338.38,580.396 2339.9,576.696 2342.95,573.596C2346,570.496 2349.73,568.946 2354.13,568.946C2358.53,568.946 2362.23,570.496 2365.23,573.596C2368.23,576.696 2369.73,580.396 2369.73,584.696C2369.73,588.996 2368.23,592.671 2365.23,595.721C2362.23,598.771 2358.53,600.296 2354.13,600.296C2349.73,600.296 2346,598.771 2342.95,595.721C2339.9,592.671 2338.38,588.996 2338.38,584.696ZM2338.38,636.446C2338.38,632.246 2339.9,628.621 2342.95,625.571C2346,622.521 2349.73,620.996 2354.13,620.996C2358.53,620.996 2362.23,622.521 2365.23,625.571C2368.23,628.621 2369.73,632.246 2369.73,636.446C2369.73,640.846 2368.23,644.596 2365.23,647.696C2362.23,650.796 2358.53,652.346 2354.13,652.346C2349.73,652.346 2346,650.796 2342.95,647.696C2339.9,644.596 2338.38,640.846 2338.38,636.446Z" style="fill:white;"/>
                    <text x="329.126px" y="661.796px" style="font-family:'FiraCode-Bold', 'Fira Code', monospace;font-weight:700;font-size:150px;fill:white;">func use_radgrad(self)</text>
                    <text x="629.126px" y="936.796px" style="font-family:'FiraCode-Bold', 'Fira Code', monospace;font-weight:700;font-size:150px;fill:white;"><tspan x="629.126px " y="936.796px ">s</tspan>elf.confusion = 0</text>
                    <text x="629.126px" y="1211.8px" style="font-family:'FiraCode-Bold', 'Fira Code', monospace;font-weight:700;font-size:150px;fill:white;"><tspan x="629.126px " y="1211.8px ">s</tspan>elf.prepared =</text>
                    <text x="629.126px" y="1486.8px" style="font-family:'FiraCode-Bold', 'Fira Code', monospace;font-weight:700;font-size:150px;fill:white;"><tspan x="629.126px " y="1486.8px ">r</tspan>eturn</text>
                </g>
                <g>
                    <g transform="matrix(1,0,0,2.52436,-544.527,-9225.35)">
                        <path d="M1780.48,4649.66C1778.74,4644.03 1776.91,4636.9 1773.19,4632.27C1763.9,4620.7 1752.04,4620.69 1738.74,4623.73C1717.98,4628.48 1699.67,4637.81 1681.89,4649.41C1671.32,4656.31 1654.32,4670.45 1664.09,4684.45C1668.96,4691.43 1675.88,4694.51 1684.21,4693.52C1687.21,4693.16 1690.45,4691.59 1693.49,4692.33C1696.98,4693.18 1699.64,4696.32 1702.77,4697.98C1707.6,4700.54 1712.76,4700.94 1717.85,4702.59C1725.09,4704.94 1729.6,4708.74 1737.56,4708.81C1733.77,4719.86 1725.23,4727.89 1717.09,4735.87C1701.72,4750.94 1685.02,4766.31 1663.33,4771.44L1663.33,4776.08C1671.56,4779.92 1677.85,4788.28 1684.21,4794.64L1723.64,4834.07L1737.55,4847.99C1739.89,4850.35 1742.42,4853.8 1745.88,4854.48C1752.27,4855.73 1759.29,4850.59 1764.24,4847.35C1776.94,4839.06 1788.19,4831.26 1799.03,4820.47C1807.08,4812.46 1816.42,4802.77 1821.07,4792.32C1833.22,4798.01 1830.29,4816.45 1843.11,4820.16C1843.11,4831.96 1842.72,4852.76 1859.35,4852.56C1861.74,4852.54 1864.06,4852.09 1866.3,4851.25C1868.75,4850.34 1871.16,4849.06 1873.22,4847.44C1878.72,4843.13 1881.35,4836.83 1884.97,4831.09C1895.79,4813.92 1904.32,4788.44 1904.57,4767.97C1904.67,4760.25 1906.07,4749.55 1901,4743C1893.78,4733.67 1879.33,4732.2 1868.62,4730.85C1871.37,4724.98 1876.33,4721.68 1881.39,4717.82C1891.74,4709.94 1902.95,4702.31 1916.18,4700.69C1913.85,4692.55 1903.93,4685.74 1898.01,4679.82L1853.16,4634.97L1839.24,4621.05C1837.03,4618.87 1834.78,4616.33 1831.4,4616.43C1826.5,4616.57 1821.83,4620.54 1817.59,4622.63C1803.51,4629.57 1792.82,4640.27 1780.48,4649.66ZM1889.5,4694.9C1886.47,4684.1 1872.9,4674.82 1865.14,4667.06C1856.69,4658.61 1848.45,4649.87 1839.67,4641.76C1836.87,4639.16 1833.12,4634.39 1829.08,4633.93C1825.34,4633.5 1821.73,4636.11 1818.8,4638.06C1812.7,4642.13 1807.04,4646.42 1801.36,4651.05C1772.95,4674.21 1760.68,4707.85 1738.01,4735.49C1728.78,4746.75 1718.07,4757.4 1706.25,4765.94C1702.48,4768.67 1691.8,4772.95 1690.41,4777.55C1689.37,4781 1693.75,4784.41 1695.81,4786.52C1702.7,4793.55 1709.73,4800.44 1716.69,4807.4L1738.72,4829.44C1741.51,4832.22 1745.01,4837.02 1749.16,4837.67C1753.31,4838.31 1758.57,4834.05 1761.92,4832.04C1773.04,4825.39 1783.15,4816.89 1791.97,4807.4C1807.23,4790.99 1816.31,4771.14 1828.81,4752.89C1844.66,4729.76 1864.8,4708.6 1889.5,4694.9ZM1837.31,4786.52L1839.63,4786.52C1841.62,4783.09 1843.19,4777.36 1846.41,4774.93C1849.65,4772.48 1854.63,4776.06 1854.68,4779.77C1854.77,4786.32 1846.53,4790.84 1845.08,4796.96C1844.24,4800.49 1846.6,4804.18 1847.75,4807.4C1856.24,4804.99 1859.37,4793.96 1862.82,4786.52C1865.3,4787.44 1868.5,4788.33 1870.1,4790.65C1871.9,4793.28 1870.07,4796.66 1869.11,4799.28C1866.47,4806.47 1860.66,4811.94 1858.06,4819C1855.82,4825.06 1857.22,4831.73 1859.35,4837.56C1867.79,4835.25 1871.69,4826.47 1874.78,4819C1881.13,4803.58 1887.39,4788 1889.98,4771.44C1891.26,4763.2 1892.56,4753.24 1884.19,4748.57C1876.64,4744.36 1858.75,4743.85 1851.23,4748.18C1838.9,4755.27 1831.82,4773.53 1837.31,4786.52ZM1712.05,4779.56C1717.84,4791.99 1732.61,4802.35 1742.2,4812.04C1745,4814.87 1749.17,4821.43 1753.85,4820.45C1757.67,4819.65 1761.24,4815.65 1764.24,4813.34C1773.89,4805.88 1782.35,4797.22 1789.98,4787.68C1798.09,4777.55 1803.38,4766.07 1810.3,4755.21C1820.5,4739.16 1831.61,4724.53 1845.11,4711.13C1852.02,4704.27 1859.78,4696.79 1868.62,4692.58L1868.62,4689.1C1858.3,4681.82 1849.72,4671.34 1840.79,4662.42C1837.44,4659.07 1832.67,4652.47 1827.7,4651.59C1823.69,4650.87 1819.34,4654.96 1816.43,4657.2C1808.09,4663.61 1800.4,4670.78 1793.43,4678.66C1778.82,4695.17 1769.88,4715.2 1757.41,4733.17C1744.91,4751.18 1729.28,4766.16 1712.05,4779.56ZM1790.91,4710.95C1779.99,4714.95 1770.26,4726.15 1769.08,4737.81C1767.84,4749.95 1775.07,4761.73 1788.6,4757.08C1799.46,4753.35 1809.4,4742.65 1810.51,4730.85C1811.59,4719.41 1804.62,4705.92 1790.91,4710.95ZM1723.64,4658.94L1725.97,4668.22C1719.99,4669.64 1713.57,4673.91 1709.6,4678.67C1705.31,4683.83 1710.34,4686.99 1715.51,4686.69C1721.26,4686.36 1725.18,4680.95 1729.34,4677.52C1731.18,4676.01 1733.62,4673.34 1736.29,4673.88C1739.54,4674.54 1741.62,4678.92 1740.08,4681.79C1737.97,4685.73 1726.2,4693.28 1737.59,4694.75C1738.72,4694.9 1739.91,4694.77 1741.04,4694.69C1742.58,4694.58 1744.22,4694.25 1745.66,4693.7C1750.76,4691.75 1752.92,4686.43 1755.74,4682.14C1759.27,4676.77 1764.51,4671.43 1766.83,4665.41C1770.08,4656.95 1764.22,4639.73 1754.96,4637.39C1748.18,4635.68 1741.65,4638.19 1735.24,4640.04C1720.31,4644.35 1705.49,4651.33 1692.33,4659.59C1687.67,4662.51 1682.17,4666.19 1678.79,4670.58C1677.51,4672.25 1676,4674.73 1677.35,4676.8C1679.7,4680.38 1687.85,4678.08 1691.17,4677.48C1697.19,4676.39 1699.88,4672.32 1704.31,4668.62C1710.09,4663.78 1716.02,4659.71 1723.64,4658.94Z" style="fill:rgb(26,255,127);"/>
                    </g>
                    <g transform="matrix(1,0,0,2.52436,-289.52,-9201.08)">
                        <path d="M1780.48,4649.66C1778.74,4644.03 1776.91,4636.9 1773.19,4632.27C1763.9,4620.7 1752.04,4620.69 1738.74,4623.73C1717.98,4628.48 1699.67,4637.81 1681.89,4649.41C1671.32,4656.31 1654.32,4670.45 1664.09,4684.45C1668.96,4691.43 1675.88,4694.51 1684.21,4693.52C1687.21,4693.16 1690.45,4691.59 1693.49,4692.33C1696.98,4693.18 1699.64,4696.32 1702.77,4697.98C1707.6,4700.54 1712.76,4700.94 1717.85,4702.59C1725.09,4704.94 1729.6,4708.74 1737.56,4708.81C1733.77,4719.86 1725.23,4727.89 1717.09,4735.87C1701.72,4750.94 1685.02,4766.31 1663.33,4771.44L1663.33,4776.08C1671.56,4779.92 1677.85,4788.28 1684.21,4794.64L1723.64,4834.07L1737.55,4847.99C1739.89,4850.35 1742.42,4853.8 1745.88,4854.48C1752.27,4855.73 1759.29,4850.59 1764.24,4847.35C1776.94,4839.06 1788.19,4831.26 1799.03,4820.47C1807.08,4812.46 1816.42,4802.77 1821.07,4792.32C1833.22,4798.01 1830.29,4816.45 1843.11,4820.16C1843.11,4831.96 1842.72,4852.76 1859.35,4852.56C1861.74,4852.54 1864.06,4852.09 1866.3,4851.25C1868.75,4850.34 1871.16,4849.06 1873.22,4847.44C1878.72,4843.13 1881.35,4836.83 1884.97,4831.09C1895.79,4813.92 1904.32,4788.44 1904.57,4767.97C1904.67,4760.25 1906.07,4749.55 1901,4743C1893.78,4733.67 1879.33,4732.2 1868.62,4730.85C1871.37,4724.98 1876.33,4721.68 1881.39,4717.82C1891.74,4709.94 1902.95,4702.31 1916.18,4700.69C1913.85,4692.55 1903.93,4685.74 1898.01,4679.82L1853.16,4634.97L1839.24,4621.05C1837.03,4618.87 1834.78,4616.33 1831.4,4616.43C1826.5,4616.57 1821.83,4620.54 1817.59,4622.63C1803.51,4629.57 1792.82,4640.27 1780.48,4649.66ZM1889.5,4694.9C1886.47,4684.1 1872.9,4674.82 1865.14,4667.06C1856.69,4658.61 1848.45,4649.87 1839.67,4641.76C1836.87,4639.16 1833.12,4634.39 1829.08,4633.93C1825.34,4633.5 1821.73,4636.11 1818.8,4638.06C1812.7,4642.13 1807.04,4646.42 1801.36,4651.05C1772.95,4674.21 1760.68,4707.85 1738.01,4735.49C1728.78,4746.75 1718.07,4757.4 1706.25,4765.94C1702.48,4768.67 1691.8,4772.95 1690.41,4777.55C1689.37,4781 1693.75,4784.41 1695.81,4786.52C1702.7,4793.55 1709.73,4800.44 1716.69,4807.4L1738.72,4829.44C1741.51,4832.22 1745.01,4837.02 1749.16,4837.67C1753.31,4838.31 1758.57,4834.05 1761.92,4832.04C1773.04,4825.39 1783.15,4816.89 1791.97,4807.4C1807.23,4790.99 1816.31,4771.14 1828.81,4752.89C1844.66,4729.76 1864.8,4708.6 1889.5,4694.9ZM1837.31,4786.52L1839.63,4786.52C1841.62,4783.09 1843.19,4777.36 1846.41,4774.93C1849.65,4772.48 1854.63,4776.06 1854.68,4779.77C1854.77,4786.32 1846.53,4790.84 1845.08,4796.96C1844.24,4800.49 1846.6,4804.18 1847.75,4807.4C1856.24,4804.99 1859.37,4793.96 1862.82,4786.52C1865.3,4787.44 1868.5,4788.33 1870.1,4790.65C1871.9,4793.28 1870.07,4796.66 1869.11,4799.28C1866.47,4806.47 1860.66,4811.94 1858.06,4819C1855.82,4825.06 1857.22,4831.73 1859.35,4837.56C1867.79,4835.25 1871.69,4826.47 1874.78,4819C1881.13,4803.58 1887.39,4788 1889.98,4771.44C1891.26,4763.2 1892.56,4753.24 1884.19,4748.57C1876.64,4744.36 1858.75,4743.85 1851.23,4748.18C1838.9,4755.27 1831.82,4773.53 1837.31,4786.52ZM1712.05,4779.56C1717.84,4791.99 1732.61,4802.35 1742.2,4812.04C1745,4814.87 1749.17,4821.43 1753.85,4820.45C1757.67,4819.65 1761.24,4815.65 1764.24,4813.34C1773.89,4805.88 1782.35,4797.22 1789.98,4787.68C1798.09,4777.55 1803.38,4766.07 1810.3,4755.21C1820.5,4739.16 1831.61,4724.53 1845.11,4711.13C1852.02,4704.27 1859.78,4696.79 1868.62,4692.58L1868.62,4689.1C1858.3,4681.82 1849.72,4671.34 1840.79,4662.42C1837.44,4659.07 1832.67,4652.47 1827.7,4651.59C1823.69,4650.87 1819.34,4654.96 1816.43,4657.2C1808.09,4663.61 1800.4,4670.78 1793.43,4678.66C1778.82,4695.17 1769.88,4715.2 1757.41,4733.17C1744.91,4751.18 1729.28,4766.16 1712.05,4779.56ZM1790.91,4710.95C1779.99,4714.95 1770.26,4726.15 1769.08,4737.81C1767.84,4749.95 1775.07,4761.73 1788.6,4757.08C1799.46,4753.35 1809.4,4742.65 1810.51,4730.85C1811.59,4719.41 1804.62,4705.92 1790.91,4710.95ZM1723.64,4658.94L1725.97,4668.22C1719.99,4669.64 1713.57,4673.91 1709.6,4678.67C1705.31,4683.83 1710.34,4686.99 1715.51,4686.69C1721.26,4686.36 1725.18,4680.95 1729.34,4677.52C1731.18,4676.01 1733.62,4673.34 1736.29,4673.88C1739.54,4674.54 1741.62,4678.92 1740.08,4681.79C1737.97,4685.73 1726.2,4693.28 1737.59,4694.75C1738.72,4694.9 1739.91,4694.77 1741.04,4694.69C1742.58,4694.58 1744.22,4694.25 1745.66,4693.7C1750.76,4691.75 1752.92,4686.43 1755.74,4682.14C1759.27,4676.77 1764.51,4671.43 1766.83,4665.41C1770.08,4656.95 1764.22,4639.73 1754.96,4637.39C1748.18,4635.68 1741.65,4638.19 1735.24,4640.04C1720.31,4644.35 1705.49,4651.33 1692.33,4659.59C1687.67,4662.51 1682.17,4666.19 1678.79,4670.58C1677.51,4672.25 1676,4674.73 1677.35,4676.8C1679.7,4680.38 1687.85,4678.08 1691.17,4677.48C1697.19,4676.39 1699.88,4672.32 1704.31,4668.62C1710.09,4663.78 1716.02,4659.71 1723.64,4658.94Z" style="fill:rgb(26,255,127);"/>
                    </g>
                    <g transform="matrix(1,0,0,2.52436,-34.5131,-9201.08)">
                        <path d="M1780.48,4649.66C1778.74,4644.03 1776.91,4636.9 1773.19,4632.27C1763.9,4620.7 1752.04,4620.69 1738.74,4623.73C1717.98,4628.48 1699.67,4637.81 1681.89,4649.41C1671.32,4656.31 1654.32,4670.45 1664.09,4684.45C1668.96,4691.43 1675.88,4694.51 1684.21,4693.52C1687.21,4693.16 1690.45,4691.59 1693.49,4692.33C1696.98,4693.18 1699.64,4696.32 1702.77,4697.98C1707.6,4700.54 1712.76,4700.94 1717.85,4702.59C1725.09,4704.94 1729.6,4708.74 1737.56,4708.81C1733.77,4719.86 1725.23,4727.89 1717.09,4735.87C1701.72,4750.94 1685.02,4766.31 1663.33,4771.44L1663.33,4776.08C1671.56,4779.92 1677.85,4788.28 1684.21,4794.64L1723.64,4834.07L1737.55,4847.99C1739.89,4850.35 1742.42,4853.8 1745.88,4854.48C1752.27,4855.73 1759.29,4850.59 1764.24,4847.35C1776.94,4839.06 1788.19,4831.26 1799.03,4820.47C1807.08,4812.46 1816.42,4802.77 1821.07,4792.32C1833.22,4798.01 1830.29,4816.45 1843.11,4820.16C1843.11,4831.96 1842.72,4852.76 1859.35,4852.56C1861.74,4852.54 1864.06,4852.09 1866.3,4851.25C1868.75,4850.34 1871.16,4849.06 1873.22,4847.44C1878.72,4843.13 1881.35,4836.83 1884.97,4831.09C1895.79,4813.92 1904.32,4788.44 1904.57,4767.97C1904.67,4760.25 1906.07,4749.55 1901,4743C1893.78,4733.67 1879.33,4732.2 1868.62,4730.85C1871.37,4724.98 1876.33,4721.68 1881.39,4717.82C1891.74,4709.94 1902.95,4702.31 1916.18,4700.69C1913.85,4692.55 1903.93,4685.74 1898.01,4679.82L1853.16,4634.97L1839.24,4621.05C1837.03,4618.87 1834.78,4616.33 1831.4,4616.43C1826.5,4616.57 1821.83,4620.54 1817.59,4622.63C1803.51,4629.57 1792.82,4640.27 1780.48,4649.66ZM1889.5,4694.9C1886.47,4684.1 1872.9,4674.82 1865.14,4667.06C1856.69,4658.61 1848.45,4649.87 1839.67,4641.76C1836.87,4639.16 1833.12,4634.39 1829.08,4633.93C1825.34,4633.5 1821.73,4636.11 1818.8,4638.06C1812.7,4642.13 1807.04,4646.42 1801.36,4651.05C1772.95,4674.21 1760.68,4707.85 1738.01,4735.49C1728.78,4746.75 1718.07,4757.4 1706.25,4765.94C1702.48,4768.67 1691.8,4772.95 1690.41,4777.55C1689.37,4781 1693.75,4784.41 1695.81,4786.52C1702.7,4793.55 1709.73,4800.44 1716.69,4807.4L1738.72,4829.44C1741.51,4832.22 1745.01,4837.02 1749.16,4837.67C1753.31,4838.31 1758.57,4834.05 1761.92,4832.04C1773.04,4825.39 1783.15,4816.89 1791.97,4807.4C1807.23,4790.99 1816.31,4771.14 1828.81,4752.89C1844.66,4729.76 1864.8,4708.6 1889.5,4694.9ZM1837.31,4786.52L1839.63,4786.52C1841.62,4783.09 1843.19,4777.36 1846.41,4774.93C1849.65,4772.48 1854.63,4776.06 1854.68,4779.77C1854.77,4786.32 1846.53,4790.84 1845.08,4796.96C1844.24,4800.49 1846.6,4804.18 1847.75,4807.4C1856.24,4804.99 1859.37,4793.96 1862.82,4786.52C1865.3,4787.44 1868.5,4788.33 1870.1,4790.65C1871.9,4793.28 1870.07,4796.66 1869.11,4799.28C1866.47,4806.47 1860.66,4811.94 1858.06,4819C1855.82,4825.06 1857.22,4831.73 1859.35,4837.56C1867.79,4835.25 1871.69,4826.47 1874.78,4819C1881.13,4803.58 1887.39,4788 1889.98,4771.44C1891.26,4763.2 1892.56,4753.24 1884.19,4748.57C1876.64,4744.36 1858.75,4743.85 1851.23,4748.18C1838.9,4755.27 1831.82,4773.53 1837.31,4786.52ZM1712.05,4779.56C1717.84,4791.99 1732.61,4802.35 1742.2,4812.04C1745,4814.87 1749.17,4821.43 1753.85,4820.45C1757.67,4819.65 1761.24,4815.65 1764.24,4813.34C1773.89,4805.88 1782.35,4797.22 1789.98,4787.68C1798.09,4777.55 1803.38,4766.07 1810.3,4755.21C1820.5,4739.16 1831.61,4724.53 1845.11,4711.13C1852.02,4704.27 1859.78,4696.79 1868.62,4692.58L1868.62,4689.1C1858.3,4681.82 1849.72,4671.34 1840.79,4662.42C1837.44,4659.07 1832.67,4652.47 1827.7,4651.59C1823.69,4650.87 1819.34,4654.96 1816.43,4657.2C1808.09,4663.61 1800.4,4670.78 1793.43,4678.66C1778.82,4695.17 1769.88,4715.2 1757.41,4733.17C1744.91,4751.18 1729.28,4766.16 1712.05,4779.56ZM1790.91,4710.95C1779.99,4714.95 1770.26,4726.15 1769.08,4737.81C1767.84,4749.95 1775.07,4761.73 1788.6,4757.08C1799.46,4753.35 1809.4,4742.65 1810.51,4730.85C1811.59,4719.41 1804.62,4705.92 1790.91,4710.95ZM1723.64,4658.94L1725.97,4668.22C1719.99,4669.64 1713.57,4673.91 1709.6,4678.67C1705.31,4683.83 1710.34,4686.99 1715.51,4686.69C1721.26,4686.36 1725.18,4680.95 1729.34,4677.52C1731.18,4676.01 1733.62,4673.34 1736.29,4673.88C1739.54,4674.54 1741.62,4678.92 1740.08,4681.79C1737.97,4685.73 1726.2,4693.28 1737.59,4694.75C1738.72,4694.9 1739.91,4694.77 1741.04,4694.69C1742.58,4694.58 1744.22,4694.25 1745.66,4693.7C1750.76,4691.75 1752.92,4686.43 1755.74,4682.14C1759.27,4676.77 1764.51,4671.43 1766.83,4665.41C1770.08,4656.95 1764.22,4639.73 1754.96,4637.39C1748.18,4635.68 1741.65,4638.19 1735.24,4640.04C1720.31,4644.35 1705.49,4651.33 1692.33,4659.59C1687.67,4662.51 1682.17,4666.19 1678.79,4670.58C1677.51,4672.25 1676,4674.73 1677.35,4676.8C1679.7,4680.38 1687.85,4678.08 1691.17,4677.48C1697.19,4676.39 1699.88,4672.32 1704.31,4668.62C1710.09,4663.78 1716.02,4659.71 1723.64,4658.94Z" style="fill:rgb(26,255,127);"/>
                    </g>
                </g>
                <g transform="matrix(1,0,0,2.52436,2.27374e-13,-9191.11)">
                    <g id="layer101">
                        <path d="M2013.74,4606.48C1997.99,4601.15 1999.44,4578.86 2016.16,4572.32C2041.6,4562.14 2102.41,4548.57 2149.66,4542.76C2188.18,4538.15 2187.45,4538.15 2194.48,4545.18C2201.75,4552.2 2202.23,4560.69 2195.69,4568.68C2191.57,4574.01 2187.94,4574.98 2164.92,4577.65C2122.76,4582.49 2070.19,4593.39 2030.94,4605.27C2023.67,4607.69 2017.86,4607.93 2013.74,4606.48ZM1941.3,4558.02C1938.15,4556.81 1934.51,4554.63 1933.54,4552.93C1930.39,4547.84 1931.36,4532.34 1935.24,4528.46C1943.48,4520.47 2014.71,4500.84 2076.97,4489.7C2125.67,4480.98 2189.88,4474.43 2210.71,4475.89C2217.74,4476.37 2222.34,4483.4 2222.34,4493.09C2222.34,4509.81 2220.64,4510.29 2166.62,4514.89C2099.51,4520.47 2031.91,4534.03 1958.26,4556.81C1950.75,4559.23 1945.41,4559.47 1941.3,4558.02ZM1935.24,4489.94C1931.85,4484.61 1932.33,4480.25 1942.51,4433.49C1948.56,4405.63 1953.41,4382.12 1953.41,4381.16C1953.41,4380.19 1948.81,4379.22 1943.23,4378.73C1932.82,4378.01 1932.82,4378.01 1932.82,4368.32C1932.82,4355.47 1938.87,4352.57 1965.77,4352.57C1982.73,4352.57 1987.09,4353.29 1988.3,4356.44C1989.51,4359.59 1966.01,4475.65 1961.89,4486.31C1960.19,4490.67 1950.5,4495.51 1943.72,4495.51C1941.05,4495.51 1937.42,4492.85 1935.24,4489.94ZM2012.77,4473.95C1996.54,4464.26 1989.75,4443.66 1994.36,4418.23C2000.17,4386.24 2016.89,4360.08 2038.69,4349.18C2060.98,4338.03 2084.24,4342.39 2095.63,4359.35C2110.65,4381.88 2102.17,4428.16 2077.7,4456.51C2060.98,4476.13 2029.97,4484.61 2012.77,4473.95ZM2141.18,4464.02C2121.07,4457.72 2110.16,4433.49 2115.49,4405.63C2123.73,4359.84 2151.35,4330.03 2185.27,4330.03C2200.05,4330.03 2207.8,4334.4 2217.01,4347.96C2222.34,4355.47 2222.58,4358.38 2221.86,4380.43C2221.13,4401.51 2220.16,4406.6 2213.62,4420.4C2197.87,4453.36 2167.1,4472.01 2141.18,4464.02ZM2047.9,4448.99C2061.22,4439.79 2072.13,4412.9 2072.13,4388.67C2072.13,4370.98 2065.34,4364.92 2051.53,4370.5C2031.91,4378.73 2014.95,4435.91 2028.52,4449.48C2034.82,4455.78 2037.97,4455.54 2047.9,4448.99ZM2173.4,4432.28C2188.66,4417.26 2199.32,4370.5 2189.63,4359.84C2174.37,4343.12 2148.93,4373.65 2145.54,4412.9C2143.12,4438.82 2156.93,4448.27 2173.4,4432.28Z" style="fill:rgb(26,255,127);fill-rule:nonzero;"/>
                    </g>
                </g>
            </g>
        </g>
    </g>
</svg>
