<?xml version="1.0" encoding="UTF-8" standalone="no"?>
<!DOCTYPE svg PUBLIC "-//W3C//DTD SVG 1.1//EN" "http://www.w3.org/Graphics/SVG/1.1/DTD/svg11.dtd">
<svg width="100%" height="100%" viewBox="0 0 1714 1752" version="1.1" xmlns="http://www.w3.org/2000/svg" xmlns:xlink="http://www.w3.org/1999/xlink" xml:space="preserve" xmlns:serif="http://www.serif.com/" style="fill-rule:evenodd;clip-rule:evenodd;stroke-linejoin:round;stroke-miterlimit:2;">
    <g transform="matrix(1,0,0,1,-13692,-11216)">
        <g id="Artboard2" transform="matrix(0.932961,0,0,0.913028,11783.8,11216.1)">
            <rect x="2045.39" y="0" width="1837.06" height="1918.33" style="fill:none;"/>
            <g transform="matrix(1.17321,0,0,1.17321,-513.368,-165.928)">
                <g>
                    <g transform="matrix(1.07186,0,0,1.09526,1932.2,-3619.36)">
                        <path d="M752.052,4027.48C723.833,3986.74 707.294,3937.3 707.294,3884.03C707.294,3744.75 820.375,3631.67 959.66,3631.67C1098.94,3631.67 1212.03,3744.75 1212.03,3884.03C1212.03,3935.41 1196.64,3983.22 1170.24,4023.1L752.052,4027.48ZM838.481,3992.06L822.468,3944.91L822.468,3877.61L853.721,3888.51C853.721,3888.51 854.171,3887.04 855.782,3884.68C855.468,3885.79 855.304,3886.92 855.304,3888.09C855.304,3900.96 854.762,3937.16 854.762,3948.3C854.762,3965.88 904.911,3983.64 964.953,3983.64C1012.97,3983.64 1073.29,3968.56 1073.17,3950.97C1073.09,3939.48 1073.81,3900.76 1073.85,3887.64L1178.95,3850.51L962.191,3775.97L745.866,3850.89L810.926,3873.58L810.926,3942.93L794.366,3992.06L838.481,3992.06ZM965.331,3920.52C1010.73,3920.52 1047.59,3931.09 1047.59,3944.1C1047.59,3957.11 1010.73,3967.67 965.331,3967.67C919.931,3967.67 883.073,3957.11 883.073,3944.1C883.073,3931.09 919.931,3920.52 965.331,3920.52Z" style="fill:white;"/>
                    </g>
                    <g transform="matrix(1.07186,0,0,1.09526,1932.2,-3619.36)">
                        <path d="M1093.58,4604.4C1101.03,4607.4 1109.16,4609.24 1117.45,4610.32C1115.95,4612.62 1114.45,4614.91 1112.94,4617.2C1081.57,4664.87 1050.15,4712.51 1018.6,4760.08C1000.92,4786.74 982.967,4813.25 965.096,4839.8C957.829,4850.6 950.517,4861.38 943.071,4872.09C941.896,4873.77 940.158,4875.86 938.242,4876.3C934.925,4877.07 931.758,4876.11 929.917,4872.9C925.713,4865.59 921.321,4858.34 916.908,4851.12C909.575,4839.12 902.196,4827.14 894.771,4815.19C889.171,4806.18 883.45,4797.22 877.813,4788.22C869.558,4775.05 861.233,4761.9 853.108,4748.67C845.483,4736.26 838.188,4723.69 830.546,4711.29C823.65,4700.1 816.354,4689.11 809.45,4677.93C802.97,4667.44 796.524,4656.94 790.104,4646.43C794.344,4638.22 803.541,4639.66 806.877,4632.09C814.832,4644.84 817.449,4648.06 825.371,4660.83C835.446,4677.08 845.446,4693.37 855.483,4709.64C857.592,4713.05 859.717,4716.46 861.854,4719.86C863.871,4723.06 865.975,4726.22 867.933,4729.45C870.008,4732.85 871.933,4736.34 873.983,4739.76C876.042,4743.2 878.167,4746.61 880.279,4750.03C882.392,4753.43 884.529,4756.83 886.642,4760.24C888.629,4763.45 892.159,4766.65 892.2,4769.89C892.258,4774.28 896.104,4775.95 897.863,4778.96C907.938,4796.21 918.429,4813.27 928.788,4830.39C930.783,4833.69 932.833,4836.96 935.463,4841.25C941.033,4832.92 945.921,4825.74 950.667,4818.49C960.088,4804.09 969.317,4789.6 978.842,4775.26C991.229,4756.59 1003.85,4738.03 1016.35,4719.41C1035.23,4691.28 1054.03,4663.11 1073.05,4635.04C1074.4,4633.03 1077.98,4626.64 1080.64,4623.05C1081.48,4621.9 1082.53,4620.85 1083.31,4619.68L1093.58,4604.4ZM1358.89,4208.87C1363.67,4201.82 1368.44,4194.77 1373.2,4187.7C1388.41,4165.07 1403.45,4142.36 1418.77,4119.79C1431.38,4101.22 1444.11,4082.7 1457.14,4064.35C1466.21,4051.57 1475.91,4039.11 1485.28,4026.48C1485.89,4025.65 1486,4024.55 1486.22,4023.94C1136.99,4029.28 788.121,4033.66 438.346,4037.93C439.5,4039.95 440.108,4041.17 440.854,4042.33C453.688,4062.19 466.65,4082 479.338,4101.94C491.508,4121.07 503.425,4140.32 515.396,4159.55C517.65,4163.17 519.904,4166.79 522.157,4170.41C516.123,4172.64 510.139,4175.43 504.17,4178.52C502.603,4175.95 501.038,4173.39 499.475,4170.82C487.854,4151.75 476.358,4132.61 465.004,4113.41C452.813,4092.81 440.833,4072.11 428.804,4051.44C425.504,4045.76 422.313,4040.05 419.142,4034.31C418.617,4033.36 418.446,4032.26 417.908,4030.59C420.688,4030.22 422.913,4029.72 425.154,4029.66C474.85,4028.58 524.55,4027.56 574.246,4026.5C603.817,4025.87 633.379,4025.07 662.95,4024.55C696.963,4023.94 730.983,4023.61 765,4023.08C804.492,4022.47 843.983,4021.73 883.475,4021.11C911.7,4020.67 939.925,4020.37 968.15,4019.92C983.575,4019.67 998.988,4019.14 1014.42,4018.88C1054.89,4018.2 1095.37,4017.62 1135.85,4016.96C1156.25,4016.62 1176.63,4016.21 1197.03,4015.78C1224.23,4015.19 1251.42,4014.43 1278.63,4013.95C1306.61,4013.45 1334.59,4013.12 1362.56,4012.86C1402.86,4012.49 1443.15,4012.26 1483.44,4011.99C1485.27,4011.98 1487.31,4011.71 1488.88,4012.31C1490.88,4013.07 1494.14,4014.7 1494.04,4015.74C1493.46,4021.67 1499.42,4027.1 1494.8,4033.45C1490.34,4039.58 1487.64,4046.65 1483.54,4052.99C1451.63,4102.47 1419.63,4151.9 1387.53,4201.28C1384.65,4205.71 1381.76,4210.13 1378.87,4214.55C1372.13,4212.25 1365.45,4210.37 1358.89,4208.87Z" style="fill:white;"/>
                    </g>
                    <g transform="matrix(1.07186,0,0,1.09526,-307.336,-24.9436)">
                        <g transform="matrix(4.16667,0,0,4.16667,1907.13,-56.1369)">
                            <path d="M230.026,67.869C230.219,68.011 230.769,68.245 231.049,68.66C231.641,69.539 232.237,70.464 232.574,71.457C233.842,75.198 234.996,78.977 236.214,82.735C237.065,85.361 237.955,87.974 238.823,90.594C239,91.129 239.249,91.665 239.287,92.212C239.313,92.575 239.12,93.128 238.846,93.288C238.554,93.458 237.954,93.4 237.664,93.194C237.284,92.923 237.024,92.436 236.799,91.997C234.909,88.312 232.869,84.691 231.216,80.902C229.894,77.87 229.016,74.641 228.017,71.476C227.798,70.782 227.803,69.977 227.874,69.24C227.979,68.161 228.628,67.721 230.026,67.869Z" style="fill:white;"/>
                        </g>
                        <g transform="matrix(4.16667,0,0,4.16667,1963.54,63.6363)">
                            <path d="M188.154,153.897C187.783,154.69 187.21,154.83 186.425,154.692C181.108,153.753 175.77,152.928 170.474,151.884C168.461,151.488 166.53,150.65 164.592,149.931C164.029,149.723 163.399,149.333 163.111,148.843C162.798,148.31 162.617,147.478 162.818,146.941C162.961,146.557 163.867,146.185 164.369,146.256C166.347,146.539 168.339,146.865 170.255,147.419C175.5,148.939 180.706,150.592 185.934,152.167C186.926,152.466 187.85,152.778 188.154,153.897Z" style="fill:white;"/>
                        </g>
                        <g transform="matrix(3.99497,0,0,3.45901,1994.76,-5.14143)">
                            <path d="M264.674,88.985C264.587,88.494 264.433,87.983 264.418,87.467C264.125,77.366 263.84,67.264 263.579,57.161C263.553,56.163 263.607,55.14 263.805,54.166C263.898,53.717 264.387,53.089 264.781,53.018C265.565,52.878 265.791,53.633 265.859,54.265C266.004,55.63 266.181,57.004 266.169,58.373C266.101,66.336 265.993,74.299 265.872,82.262C265.841,84.139 265.712,86.015 265.622,87.892C265.597,88.381 265.648,88.936 264.674,88.985Z" style="fill:white;"/>
                        </g>
                        <g transform="matrix(4.16667,0,0,4.16667,2011.92,-36.4212)">
                            <path d="M290.801,92.712C291.024,91.947 291.093,91.482 291.287,91.076C292.472,88.583 293.703,86.111 294.884,83.616C295.849,81.575 296.656,79.452 297.729,77.472C298.954,75.214 300.387,73.068 301.75,70.886C302.013,70.463 302.329,70.057 302.686,69.711C303.463,68.96 304.269,68.81 304.873,69.325C305.552,69.906 305.829,70.627 305.37,71.502C304.906,72.392 304.535,73.34 303.991,74.178C302.526,76.442 301.1,78.747 299.455,80.877C297.026,84.021 294.938,87.364 293.02,90.828C292.618,91.552 292.324,92.452 290.801,92.712Z" style="fill:white;"/>
                        </g>
                        <g transform="matrix(4.16667,0,0,4.16667,1903.97,24.5449)">
                            <path d="M183.5,113.271C183.796,113.385 184.419,113.525 184.938,113.839C186.006,114.486 187.082,115.15 188.041,115.942C191.49,118.792 195.458,120.817 199.249,123.124C199.827,123.477 200.704,123.668 200.332,124.556C199.998,125.355 199.124,125.165 198.501,124.956C197.318,124.559 196.15,124.084 195.036,123.522C191.021,121.496 186.764,119.94 183.048,117.326C182.297,116.797 181.665,116.246 181.482,115.322C181.223,114.018 181.869,113.25 183.5,113.271Z" style="fill:white;"/>
                        </g>
                        <g transform="matrix(4.16667,0,0,4.16667,1907.44,-13.4039)">
                            <path d="M215.891,102.72C215.36,103.991 214.596,104.03 213.841,103.418C212.525,102.354 211.237,101.245 210.033,100.057C207.937,97.99 205.892,95.868 203.868,93.727C202.925,92.73 202.007,91.689 201.224,90.566C200.773,89.922 200.5,89.093 200.371,88.31C200.295,87.852 200.518,87.173 200.855,86.857C201.388,86.353 202.043,86.634 202.519,87.134C203.771,88.454 205.06,89.743 206.232,91.131C208.985,94.39 211.676,97.7 214.397,100.986C214.874,101.561 215.371,102.119 215.891,102.72Z" style="fill:white;"/>
                        </g>
                        <g transform="matrix(4.16667,0,0,4.16667,1990.98,15.6241)">
                            <path d="M333.126,133.5C332.912,133.298 332.439,133.019 332.219,132.604C331.901,132.008 332.253,131.506 332.815,131.226C333.879,130.698 334.95,130.178 336.041,129.708C338.792,128.52 341.536,127.307 344.33,126.23C345.086,125.938 346.069,125.892 346.857,126.091C348.196,126.43 348.55,127.64 347.622,128.663C346.973,129.376 346.129,130.106 345.238,130.368C341.52,131.46 337.752,132.378 334.001,133.357C333.821,133.404 333.631,133.419 333.126,133.5Z" style="fill:white;"/>
                        </g>
                        <g transform="matrix(4.16667,0,0,4.16667,2006.74,-11.2392)">
                            <path d="M314.485,105.713C314.012,104.821 314.3,104.169 315,103.562C317.935,101.016 320.838,98.434 323.792,95.907C324.246,95.519 324.874,95.204 325.457,95.128C326.603,94.976 327.374,96.141 326.74,97.104C326.128,98.033 325.405,98.963 324.529,99.63C321.98,101.57 319.337,103.388 316.717,105.23C316.059,105.692 315.369,106.204 314.485,105.713Z" style="fill:white;"/>
                        </g>
                        <g transform="matrix(4.16667,0,0,4.16667,1964.32,39.5751)">
                            <path d="M346.804,158.148C345.121,158.294 343.438,158.454 341.754,158.581C341.088,158.632 340.324,158.824 340.047,157.893C339.789,157.015 340.136,156.072 341.096,155.769C343.536,154.998 346,154.275 348.497,153.724C349.883,153.417 351.283,154.537 351.596,155.851C351.808,156.738 350.572,158.152 349.436,158.273C349.004,158.32 348.561,158.256 348.124,158.251C347.686,158.245 347.249,158.249 346.81,158.249C346.807,158.216 346.806,158.182 346.804,158.148Z" style="fill:white;"/>
                        </g>
                        <g transform="matrix(1,0,0,1,-610.034,-3281.8)">
                            <path d="M3258.24,3948.56C3260.03,3948.63 3260.68,3948.84 3261.68,3948.99C3292.1,3953.51 3321.24,3964.73 3350.51,3973.6C3356.34,3975.39 3361.87,3978.87 3363.57,3985C3363.57,3985 3364.09,3987.91 3362.58,3990.53C3360.06,3994.91 3354.72,3997.03 3349.47,3996.18C3326.76,3992.29 3303.84,3989.03 3281.38,3984.15C3272.92,3982.31 3264.97,3978.99 3256.89,3975.89C3249.24,3972.89 3242.29,3964.33 3246.28,3955.13C3248.1,3950.92 3253.01,3948.66 3257.72,3948.55C3257.98,3948.55 3257.98,3948.55 3258.24,3948.56ZM4028.73,3955.43C4038.85,3955.73 4048.47,3966.57 4044.84,3975.97C4042.34,3982.47 4035.79,3987.26 4028.56,3987.16C4025.74,3987.13 4022.92,3986.99 4020.09,3986.99L4017.66,3986.75C4010.86,3987.35 4004.01,3987.9 3997.28,3988.5C3991.95,3988.94 3986.57,3985.98 3985.14,3980.73C3983.38,3974.26 3986.91,3966.72 3993.55,3964.5C4003.97,3961.14 4014.45,3958.14 4025.1,3955.78C4025.1,3955.78 4027.09,3955.41 4028.73,3955.43ZM3258.07,3961.12C3258.15,3961.44 3258.26,3961.75 3258.39,3962.06C3259.11,3963.66 3261.12,3964.13 3263.1,3964.87C3271.31,3967.98 3279.49,3971.07 3288.17,3972.76C3300.88,3975.2 3313.66,3977.38 3326.44,3979.55L3327.99,3979.81C3304.91,3972.73 3282.12,3964.59 3258.33,3961.13C3258.33,3961.13 3258.04,3961.04 3258.07,3961.12ZM4024.24,3974.5C4027.46,3974.53 4031.16,3975.32 4033.06,3971.74C4033.76,3970.37 4030.27,3967.46 4027.76,3968C4018.12,3970.13 4008.72,3972.86 3999.37,3975.78L3999.35,3975.78C4005.41,3975.3 4011.46,3974.75 4017.51,3974.21L4018.83,3974.1C4019.99,3974.03 4021.61,3974.49 4021.61,3974.49C4022.49,3974.49 4023.36,3974.49 4024.24,3974.5ZM4042.19,3816.05C4050.69,3816.15 4060.12,3822.48 4057.35,3831.99C4055.14,3839.59 4046.85,3844.99 4039.79,3847.05C4024.65,3851.43 4009.32,3855.2 3994.13,3859.16C3992.27,3859.61 3989.62,3859.9 3989.62,3859.9C3981.8,3860.37 3974.93,3848.27 3981.16,3841.42C3982.64,3839.8 3984.64,3838.76 3986.64,3837.77C4001.93,3830.26 4017.71,3823.64 4033.48,3817.55C4034.74,3817.07 4035.08,3816.99 4035.89,3816.79C4037.94,3816.27 4040.07,3816.04 4042.19,3816.05ZM4041.84,3828.55C4039.77,3828.57 4037.77,3829.28 4035.82,3830.05C4024.7,3834.42 4013.78,3839.2 4002.83,3843.97L4002.65,3844.05C4014.39,3841.04 4026.12,3838.03 4037.72,3834.63C4040.71,3833.73 4043.29,3831.37 4045.07,3829C4045.07,3829 4043.22,3828.54 4041.84,3828.55ZM3278.46,3772.06C3280.54,3772.08 3281.47,3772.68 3282.58,3773.04C3290.39,3775.61 3297.17,3781.2 3303.43,3786.19C3316.8,3796.77 3331.95,3804.63 3346.7,3813.57C3349.84,3815.47 3353.52,3817.17 3354.8,3820.65C3357.47,3827.89 3349.66,3836.21 3339.73,3833.12C3331.24,3830.48 3323.32,3826.22 3315.3,3822.47C3301.05,3815.79 3286.46,3809.63 3273.49,3800.58C3267.96,3796.72 3263.18,3790.9 3263.74,3783.56C3264.24,3776.99 3270.57,3772.15 3278.06,3772.06C3278.26,3772.06 3278.26,3772.06 3278.46,3772.06ZM3277.59,3784.58C3276.89,3784.62 3276.07,3784.23 3276.27,3785.43C3276.83,3788.74 3280.71,3790.45 3283.77,3792.43C3292.14,3797.85 3301.16,3802.16 3310.2,3806.34L3310.42,3806.44C3309.89,3806.1 3309.36,3805.76 3308.83,3805.41C3299.29,3799.16 3290.74,3791.65 3281.3,3785.99C3279.81,3785.12 3277.78,3784.57 3277.59,3784.58ZM3973.97,3660.62C3981.91,3660.9 3988.14,3670.26 3983.87,3677.85C3976.13,3691.6 3958.56,3701.14 3944.11,3711.26C3938.2,3715.41 3931.78,3720.41 3924.56,3716.74C3918.46,3713.65 3918.6,3703.24 3925,3697.51C3937.25,3686.78 3949.24,3676.07 3961.98,3665.31C3965.34,3662.51 3969.62,3660.57 3973.97,3660.62ZM3357.22,3622.95C3363.88,3623.16 3368.26,3629.64 3373.7,3635.38C3390.59,3653.27 3405.19,3673.26 3421.33,3691.83C3421.33,3691.83 3424.38,3695.74 3422.18,3700.13C3419.6,3705.27 3413.46,3708.81 3407.62,3706.11C3406.11,3705.41 3404.8,3704.37 3403.5,3703.32C3387.55,3690.29 3373.16,3675.22 3359.36,3659.96C3353.22,3653.17 3347.01,3645.8 3346.1,3636.71C3345.44,3630.21 3350.01,3623.03 3356.92,3622.94C3357.07,3622.94 3357.07,3622.94 3357.22,3622.95ZM3971.41,3673.94C3970.02,3674.71 3968.89,3675.85 3967.68,3676.89C3963.09,3680.84 3958.52,3684.81 3953.96,3688.8L3952.63,3689.96C3959.36,3685.14 3966.59,3680.64 3971.38,3674.03C3971.38,3674.03 3971.58,3673.84 3971.41,3673.94ZM3359.22,3638.33C3361.61,3645.83 3368.99,3652.03 3374.62,3657.96C3379.83,3663.45 3385.09,3668.89 3390.41,3674.27C3388.53,3672 3386.65,3669.72 3384.77,3667.44C3376.69,3657.68 3368.62,3648.12 3359.74,3638.87C3359.57,3638.69 3359.15,3638.1 3359.22,3638.33ZM3889.18,3526.72C3897.61,3526.94 3904.29,3537.17 3900.08,3545.79C3898.11,3549.82 3896.33,3553.93 3893.95,3557.66C3887.19,3568.15 3880.39,3578.54 3872.8,3588.59C3863.28,3601.25 3854.98,3614.57 3847.35,3628.71C3844.64,3633.66 3839.69,3637.38 3834.22,3637.9C3829.68,3638.33 3826.74,3633.31 3828.05,3628.41C3828.27,3627.57 3828.48,3626.73 3828.7,3625.89C3828.77,3625.65 3828.83,3625.42 3828.89,3625.19C3829.5,3623.12 3830.48,3621.19 3831.41,3619.24C3838.18,3605.13 3845.01,3591.08 3851.41,3576.72C3857.66,3562.77 3866.04,3549.85 3874.2,3537.03C3877.62,3531.73 3882.45,3526.88 3888.72,3526.72C3888.87,3526.72 3889.02,3526.72 3889.18,3526.72ZM3473.74,3502.09C3475.04,3502.1 3476.71,3502.3 3476.71,3502.3C3477.83,3502.54 3479.38,3503.46 3479.2,3503.34C3479.07,3503.25 3483.15,3505.58 3484.93,3508.07C3491.84,3518.08 3495.11,3530.18 3498.9,3542.03C3505.48,3562.63 3511.86,3583.32 3519.13,3603.78C3519.21,3604.03 3519.3,3604.28 3519.38,3604.53C3521.52,3611.11 3519.44,3619.28 3512.94,3620.76C3509.42,3621.56 3505.55,3620.7 3502.78,3618.24C3500.22,3615.97 3498.75,3612.76 3497.17,3609.7C3488.69,3593.34 3479.47,3577.17 3472.77,3560.28C3468.23,3548.82 3464.9,3537.02 3461.22,3525.16C3460.81,3523.8 3460.73,3523.34 3460.58,3522.41C3458.97,3512.72 3462.56,3502.21 3473.41,3502.09C3473.57,3502.08 3473.57,3502.08 3473.74,3502.09ZM3473.5,3514.58C3472.43,3514.6 3472.84,3514.98 3472.82,3515.26C3472.2,3522.65 3475.87,3530.33 3478.18,3537.74C3484.04,3556.39 3492.67,3574.26 3501.86,3591.73L3501.88,3591.75C3494.67,3570.2 3488.1,3548.53 3480.8,3526.86C3479.39,3522.69 3477.17,3518.93 3474.74,3515.32C3474.3,3514.89 3473.86,3514.58 3473.5,3514.58ZM3663.57,3453.74C3668.52,3453.92 3672.37,3458.32 3673.08,3463.43C3674.17,3471.94 3674.37,3480.45 3674.28,3488.97C3674,3513.09 3673.62,3537.21 3673.2,3561.32C3673.06,3567.99 3672.49,3574.64 3672.18,3581.29C3672.06,3583.75 3669.44,3590.28 3662.72,3590.69C3659.91,3590.86 3656.74,3588.68 3655.94,3585.25C3654.97,3581.17 3654.81,3577.01 3654.68,3572.87C3653.58,3540.03 3652.4,3507.14 3651.53,3474.2C3651.37,3466.68 3651.85,3457.46 3659.8,3454.37C3661.01,3453.9 3661.92,3453.72 3663.57,3453.74ZM3888.64,3539.42C3885.85,3541.11 3884.34,3544.4 3882.39,3547.48C3875.72,3558.02 3868.89,3568.51 3863.71,3579.85L3863.67,3579.94C3870.78,3570.59 3877.18,3560.75 3883.51,3550.79C3885.61,3547.44 3887.24,3543.8 3888.89,3540.21C3888.92,3540.13 3888.95,3540.06 3888.98,3539.98C3889.14,3539.51 3888.7,3539.39 3888.64,3539.42Z" style="fill:white;"/>
                        </g>
                    </g>
                </g>
                <g>
                    <g transform="matrix(1.07186,0,0,1.09526,-307.336,-24.9436)">
                        <g transform="matrix(1,0,0,1,-610.034,-3281.8)">
                            <path d="M3472.46,4669.02C3475.86,4669.24 3478.17,4672.43 3480.25,4675.56L3480.34,4675.69C3525.16,4744.82 3567.76,4814.49 3613.97,4883.1C3616.63,4887.04 3619.51,4890.86 3621.58,4895.09C3621.58,4895.09 3622.91,4898.18 3621.75,4900.78C3620.38,4903.85 3616.7,4904.87 3612.9,4904.73C3611.72,4904.69 3611.72,4904.74 3610.89,4904.38C3607.92,4903.1 3605.96,4898.45 3603.46,4894.37C3560.96,4824.61 3516.12,4756.22 3472.01,4687.17C3470.06,4684.12 3468.05,4681.07 3466.66,4677.72C3466.66,4677.72 3465.6,4668.79 3472.46,4669.02ZM3842.02,4615.03C3846.59,4615.16 3849.39,4620.21 3846.66,4625.49C3844.47,4629.72 3841.64,4633.67 3838.98,4637.71C3794.82,4704.79 3749.89,4771.37 3706.21,4838.96C3696.25,4854.42 3686.59,4870.14 3676.82,4885.66C3676.68,4885.88 3676.53,4886.11 3676.39,4886.33C3673.09,4891.34 3667.09,4896.58 3661.61,4892.1C3660.3,4891.03 3659.66,4889.63 3658.57,4888.14L3657.89,4886.68C3657.74,4883.39 3660.21,4880.17 3661.87,4877.7C3717.13,4796.83 3771.73,4713.43 3825.9,4631.4C3829.09,4626.57 3832.05,4621.57 3835.98,4617.41C3835.98,4617.41 3838.7,4615 3842.02,4615.03ZM4210.94,4039.02C4214.27,4039.17 4216.75,4042.71 4215.44,4046.15C4214.91,4047.45 4214.84,4047.56 4214.55,4048.18C4212.52,4052.41 4209.76,4056.55 4207.27,4060.81C4175.83,4114.68 4143.47,4168.63 4113.25,4223.14C4112.7,4224.12 4112.11,4225.07 4111.47,4225.98C4108.86,4229.71 4104.11,4231.62 4099.86,4229.62C4097.69,4228.57 4098.14,4228.77 4097.92,4228.61C4094.81,4226.3 4097.54,4221.39 4100.08,4217.26C4134.77,4161.09 4167.26,4104.04 4200.67,4047.06C4203.03,4043.06 4205.92,4038.9 4210.94,4039.02ZM3106.53,4043C3107.42,4043.05 3107.44,4043.11 3107.82,4043.22C3111.38,4044.31 3112.91,4048.77 3115.05,4052.61C3139.02,4095.74 3162.27,4139.05 3187.35,4181.98C3189.62,4185.89 3192.65,4190.38 3190.21,4193.93C3188.9,4195.84 3186.41,4196.45 3184.01,4196.45C3184.01,4196.45 3180.52,4195.17 3178.47,4191.48C3155.34,4148.62 3131.47,4105.44 3107.61,4062.4C3106.16,4059.8 3104.71,4057.19 3103.28,4054.58C3102.72,4053.55 3102.7,4053.49 3102.48,4053.02C3102.01,4052.05 3101.47,4050.62 3101.47,4050.62C3101.03,4049.37 3101.07,4048.71 3101.18,4047.86C3101.52,4045.2 3103.05,4042.95 3106.53,4043Z" style="fill:rgb(26,255,127);"/>
                        </g>
                        <g transform="matrix(2.71645,0,0,4.16667,2523.29,-8.09754)">
                            <path d="M360.627,189.518C359.857,189.585 359.316,189.681 358.778,189.673C351.803,189.569 344.831,189.43 337.858,189.341C330.126,189.243 322.395,189.2 314.665,189.107C308.948,189.038 303.232,188.938 297.517,188.82C296.56,188.8 295.436,188.984 294.997,187.687C295.451,186.56 296.348,186.405 297.435,186.373C306.74,186.092 316.015,186.843 325.304,187.115C331.144,187.287 336.989,187.271 342.83,187.438C348.23,187.592 353.628,187.871 359.027,188.115C359.945,188.156 359.943,188.204 360.627,189.518Z" style="fill:rgb(26,255,127);"/>
                        </g>
                        <g transform="matrix(3.48308,0,0,4.16667,2100.63,0.815465)">
                            <path d="M165.78,189.539C159.118,189.539 152.457,189.512 145.794,189.556C143.726,189.569 141.659,189.775 139.591,189.895C139.277,189.914 138.963,189.937 138.65,189.965C137.833,190.038 137.098,189.937 136.955,188.941C136.836,188.114 137.576,187.383 138.645,187.351C141.22,187.273 143.798,187.2 146.374,187.223C152.402,187.275 158.431,187.496 164.458,187.442C171.239,187.383 178.018,187.078 184.799,186.922C186.43,186.885 188.064,186.999 189.695,187.079C190.129,187.099 190.603,187.162 190.97,187.364C191.244,187.515 191.493,187.907 191.532,188.219C191.559,188.431 191.24,188.841 191.009,188.899C190.348,189.065 189.653,189.159 188.969,189.172C185.637,189.231 182.304,189.232 178.973,189.297C174.575,189.383 170.178,189.509 165.78,189.618L165.78,189.539Z" style="fill:rgb(26,255,127);"/>
                        </g>
                        <g transform="matrix(4.16667,0,0,4.16667,678.082,93.0473)">
                            <path d="M428.129,206.601C427.05,206.469 425.975,206.277 424.893,206.221C423.84,206.167 423.343,205.568 422.984,204.689C422.272,202.947 421.999,201.175 422.785,199.41C423.048,198.817 423.601,198.351 424.038,197.839C424.398,197.417 424.798,197.03 425.148,196.602C427.228,194.067 429.718,193.885 431.839,196.376C432.32,196.941 432.678,197.631 432.996,198.31C433.479,199.342 433.685,200.373 433.279,201.559C432.585,203.587 431.646,205.331 429.537,206.176C429.311,206.266 429.119,206.466 428.89,206.51C428.66,206.555 428.404,206.47 428.16,206.442C428.149,206.495 428.138,206.547 428.129,206.601Z" style="fill:rgb(26,255,127);"/>
                        </g>
                        <g transform="matrix(4.16667,0,0,4.16667,2038.34,69.6972)">
                            <path d="M95.062,153.679C94.364,153.511 93.151,153.366 92.076,152.901C91.468,152.638 90.881,151.922 90.655,151.281C90.353,150.419 90.34,149.433 90.328,148.498C90.314,147.388 90.866,146.646 91.969,146.252C92.786,145.96 93.518,145.441 94.314,145.083C95.107,144.726 95.911,144.346 96.751,144.147C98.215,143.801 99.651,144.627 100.446,145.925C101.317,147.345 101.833,148.63 100.764,150.251C99.214,152.601 97.802,153.644 95.062,153.679Z" style="fill:rgb(26,255,127);"/>
                        </g>
                        <g transform="matrix(8.62038,0,0,8.62038,162.065,-701.65)">
                            <path d="M400.935,152.3C400.854,151.446 400.775,150.589 400.691,149.733C400.575,148.556 401.4,147.671 402.972,147.71C404.103,147.737 405.234,147.936 405.425,149.442C405.465,149.766 405.791,150.054 405.958,150.318C404.471,153.118 404.156,153.239 400.935,152.3Z" style="fill:rgb(26,255,127);"/>
                        </g>
                        <g transform="matrix(7.47742,0,0,7.47742,740.492,-389.681)">
                            <path d="M370.175,107.851C368.83,110.43 368.049,110.599 366.013,109.609C365.185,107.577 365.369,106.539 366.66,105.959C368.192,105.271 369.032,105.723 370.175,107.851Z" style="fill:rgb(26,255,127);"/>
                        </g>
                        <g transform="matrix(7.30795,0,0,7.30795,1500.41,-583.282)">
                            <path d="M147.524,147.35C147.131,147.875 146.827,148.269 146.536,148.672C145.922,149.527 145.116,149.805 144.174,149.476C143.388,149.202 142.905,148.338 142.905,147.207C142.906,146.203 143.361,145.598 144.355,145.283C145.299,144.983 146.087,145.214 146.645,145.987C146.935,146.387 147.184,146.817 147.524,147.35Z" style="fill:rgb(26,255,127);"/>
                        </g>
                        <g transform="matrix(1.96501,0,0,1.96501,3450.76,391.113)">
                            <path d="M105.848,209.014C104.704,208.722 103.71,208.543 102.782,208.194C102.374,208.041 101.936,207.6 101.783,207.189C100.571,203.929 100.5,200.685 102.397,197.646C103.175,196.4 104.483,195.655 105.886,195.276C108.786,194.494 111.013,195.565 112.459,198.301C112.489,198.357 112.507,198.422 112.548,198.467C114.119,200.171 114.302,202.059 113.087,203.984C112.073,205.593 111.285,207.464 109.11,207.98C107.966,208.251 106.861,208.687 105.848,209.014Z" style="fill:rgb(26,255,127);"/>
                        </g>
                        <g transform="matrix(6.873,0,0,6.873,1639.48,-507.834)">
                            <path d="M152.826,197.469C153.493,196.636 153.964,195.588 155.242,196.141C156.035,196.484 156.514,197.092 156.419,198.039C156.336,198.861 155.892,199.209 155.089,199.313C153.878,199.471 153.794,199.442 152.826,197.469Z" style="fill:rgb(26,255,127);"/>
                        </g>
                        <g transform="matrix(6.873,0,0,6.873,1627.76,-505.035)">
                            <path d="M163.609,198.032C164.158,197.213 164.521,196.225 165.728,196.536C166.539,196.745 167.039,197.416 166.916,198.198C166.837,198.702 166.362,199.335 165.898,199.548C164.997,199.963 164.468,199.552 163.609,198.032Z" style="fill:rgb(26,255,127);"/>
                        </g>
                        <g transform="matrix(6.873,0,0,6.873,1640,-497.326)">
                            <path d="M146.995,196.804C147.007,197.842 146.38,198.439 145.673,198.423C144.96,198.407 144.343,197.811 144.331,197.126C144.322,196.567 145.167,195.639 145.663,195.831C146.224,196.046 146.673,196.556 146.995,196.804Z" style="fill:rgb(26,255,127);"/>
                        </g>
                        <g transform="matrix(6.873,0,0,6.873,2166.1,-502.72)">
                            <path d="M182.787,197.917C183.546,197.027 184.009,195.835 185.445,196.305C186.284,196.58 186.76,197.225 186.778,198.114C186.796,198.983 186.107,199.701 185.21,199.85C183.973,200.057 183.761,199.894 182.787,197.917Z" style="fill:rgb(26,255,127);"/>
                        </g>
                        <g transform="matrix(6.873,0,0,6.873,2166.1,-502.72)">
                            <path d="M176.329,198.467C174.147,198.856 174.025,198.795 173.262,196.919C174.265,195.528 174.902,195.22 175.769,195.71C176.584,196.171 176.771,197.088 176.329,198.467Z" style="fill:rgb(26,255,127);"/>
                        </g>
                        <g transform="matrix(6.873,0,0,6.873,2166.1,-502.72)">
                            <path d="M163.609,198.032C164.158,197.213 164.521,196.225 165.728,196.536C166.539,196.745 167.039,197.416 166.916,198.198C166.837,198.702 166.362,199.335 165.898,199.548C164.997,199.963 164.468,199.552 163.609,198.032Z" style="fill:rgb(26,255,127);"/>
                        </g>
                        <g transform="matrix(4.11526,0,0,4.11526,1380.74,12.5146)">
                            <path d="M326.152,199.171C325.227,199.164 324.278,198.308 324.23,197.435C324.186,196.655 325.395,195.53 326.262,195.543C327.237,195.558 328.081,196.414 328.045,197.352C328.001,198.57 327.368,199.18 326.152,199.171Z" style="fill:rgb(26,255,127);"/>
                        </g>
                        <g transform="matrix(4.11526,0,0,4.11526,1380.74,12.5146)">
                            <path d="M299.313,195.401C300.513,193.729 301.022,193.49 302.071,194.024C303.038,194.515 303.168,195.207 302.624,196.936C300.437,197.683 300.159,197.557 299.313,195.401Z" style="fill:rgb(26,255,127);"/>
                        </g>
                        <g transform="matrix(4.11526,0,0,4.11526,1380.74,12.5146)">
                            <path d="M312.963,197.605C311.993,197.582 311.175,196.844 311.243,196.051C311.292,195.449 312.167,194.685 312.806,194.685C313.617,194.684 314.608,195.772 314.484,196.591C314.355,197.445 313.705,197.614 312.963,197.605Z" style="fill:rgb(26,255,127);"/>
                        </g>
                        <g transform="matrix(4.11526,0,0,4.11526,2004.46,-1.14033)">
                            <path d="M348.02,198.001C348.76,197.082 349.176,195.857 350.649,196.286C351.523,196.539 352.19,197.421 352.167,198.195C352.144,198.962 351.375,199.846 350.594,200.007C349.339,200.265 349.007,200.016 348.02,198.001Z" style="fill:rgb(26,255,127);"/>
                        </g>
                        <g transform="matrix(4.11526,0,0,4.11526,2004.46,-1.14033)">
                            <path d="M326.152,199.171C325.227,199.164 324.278,198.308 324.23,197.435C324.186,196.655 325.395,195.53 326.262,195.543C327.237,195.558 328.081,196.414 328.045,197.352C328.001,198.57 327.368,199.18 326.152,199.171Z" style="fill:rgb(26,255,127);"/>
                        </g>
                        <g transform="matrix(4.11526,0,0,4.11526,2004.46,-1.14033)">
                            <path d="M336.708,196.753C337.799,195.12 338.167,194.9 339.123,195.28C339.987,195.625 340.447,196.248 340.315,197.182C340.207,197.954 339.966,198.623 338.958,198.692C337.691,198.778 337.389,198.572 336.708,196.753Z" style="fill:rgb(26,255,127);"/>
                        </g>
                        <g transform="matrix(4.11526,0,0,4.11526,2014.46,-1.14033)">
                            <path d="M299.313,195.401C300.513,193.729 301.022,193.49 302.071,194.024C303.038,194.515 303.168,195.207 302.624,196.936C300.437,197.683 300.159,197.557 299.313,195.401Z" style="fill:rgb(26,255,127);"/>
                        </g>
                        <g transform="matrix(7.30795,0,0,7.30795,1491.48,-477.568)">
                            <path d="M147.524,147.35C147.131,147.875 146.827,148.269 146.536,148.672C145.922,149.527 145.116,149.805 144.174,149.476C143.388,149.202 142.905,148.338 142.905,147.207C142.906,146.203 143.361,145.598 144.355,145.283C145.299,144.983 146.087,145.214 146.645,145.987C146.935,146.387 147.184,146.817 147.524,147.35Z" style="fill:rgb(26,255,127);"/>
                        </g>
                    </g>
                    <g transform="matrix(0.928982,0,0,1.51843,2115.37,-377.556)">
                        <path d="M824.918,786.322C858.184,786.354 891.602,787.194 924.233,788.904C924.233,788.904 936.002,789.373 946.029,789.9C950.207,790.119 954.383,790.359 958.556,790.611C958.556,790.611 966.764,790.962 974.164,791.34C974.164,791.34 982.547,791.65 990.106,791.996C990.106,791.996 1000.73,792.296 1009.4,792.639C1013.44,792.798 1017.46,792.976 1021.49,793.166C1021.49,793.166 1032.28,793.485 1041.58,793.86C1045.25,794.009 1048.91,794.172 1052.58,794.345C1052.58,794.345 1062.12,794.67 1070.2,795.022C1074,795.187 1077.79,795.368 1081.59,795.559C1081.59,795.559 1084.88,795.683 1088.18,795.807C1107.04,796.539 1125.96,797.675 1144.41,798.707L1144.42,798.708C1151.93,800.548 1154.06,800.658 1160.41,803.83C1174.23,810.726 1180.73,822.889 1175.86,833.818C1175.86,833.818 1175.86,833.822 1175.86,833.825C1172.91,838.547 1172.72,839.89 1167.65,843.897C1158.57,851.083 1143.61,855.323 1128.94,854.684C1125.89,854.551 1122.65,854.567 1119.91,853.718C1115.13,852.231 1110.34,850.734 1105.52,849.276L1105.4,849.238C1093.12,845.788 1080.73,842.509 1068.24,839.402L1067.3,839.169C1059.12,837.314 1050.89,835.541 1042.62,833.833L1041.92,833.689C1032.81,831.985 1023.66,830.378 1014.49,828.855L1013.83,828.747C1004.86,827.473 995.862,826.287 986.828,825.188C986.517,825.15 984.67,824.919 984.099,824.863C983.644,824.818 983.188,824.773 982.733,824.729C981.37,824.596 980.008,824.465 978.645,824.337C975.577,824.047 972.508,823.758 969.432,823.498C965.4,823.156 961.247,822.939 957.118,822.684C956.966,822.675 955.121,822.554 954.462,822.529C954.02,822.512 953.577,822.495 953.134,822.478C952.693,822.461 952.251,822.445 951.809,822.429C942.731,822.096 933.628,821.854 924.525,821.693L922.735,821.664C897.425,821.667 872.309,822.505 847.295,824.143L846.852,824.172C837.818,824.837 828.802,825.592 819.808,826.443C789.579,829.302 759.882,833.489 730.53,838.859C711.833,842.28 693.484,846.125 675.678,851.254C674.111,851.705 673.32,851.989 673.32,851.989L664.392,853.404C656.473,853.638 654.474,854.061 646.702,852.849C632.318,850.605 619.954,843.823 614.775,834.946C614.775,834.946 614.773,834.941 614.771,834.939C614.017,833.078 612.964,831.256 612.508,829.358C610.315,820.231 615.846,810.517 626.609,804.254C632.595,800.771 634.72,800.553 642.023,798.342C646.625,797.293 657.358,795.914 667.165,794.724C711.122,789.389 755.759,787.001 800.379,786.523C808.549,786.382 816.73,786.321 824.918,786.322Z" style="fill:rgb(26,255,127);"/>
                    </g>
                    <g transform="matrix(0.107935,0,0,0.110292,1047.79,553.498)">
                        <g transform="matrix(3.5872,0,0,3.5872,-8662.69,-20205.2)">
                            <path d="M6342.2,6684.57C6068.89,6684.57 6154.52,6762.47 6342.2,6762.47C6442.72,6762.47 6524.34,6816.09 6524.34,6916.61C6524.34,6971.75 6399.94,7302.19 6140.22,7302.19C6052.56,7302.19 6040.62,7359.7 6163.58,7359.7C6428.58,7359.7 6597.08,7045.93 6597.08,6952.47C6597.08,6802.09 6431.39,6684.57 6342.2,6684.57Z" style="fill:rgb(26,255,127);"/>
                        </g>
                        <g transform="matrix(2.08333,0,0,2.08333,7543.85,-2904.95)">
                            <path d="M7068.6,3817.53C6878.44,3817.53 6762.22,4183.15 6762.22,4266.78C6762.22,4350.41 6801.19,4457.82 6884.82,4457.82C7121.66,4457.82 7249.66,4006.4 7249.66,3944.98C7249.66,3848.77 7098.32,4412.58 6910.55,4412.58C6774.19,4412.58 7028.16,3923.86 7129.17,3923.86C7181.6,3923.86 7215.08,4039.37 7215.08,3948.89C7215.08,3917.55 7152.24,3817.53 7068.6,3817.53Z" style="fill:rgb(26,255,127);"/>
                        </g>
                        <g transform="matrix(2.08333,0,0,2.08333,7543.85,-2904.95)">
                            <path d="M7937.69,3299.56C7937.69,3174.48 7757.09,3091.73 7665.1,3091.73C7466.55,3091.73 7101.99,4087.19 7101.99,4285.74C7101.99,4355.64 7176.64,4457.82 7249.66,4457.82C7322.68,4457.82 7418.07,4411.24 7418.07,4389.59C7418.07,4367.94 7249.66,4445.96 7249.66,4349.08C7249.66,4294.1 7545.73,3219.35 7764.12,3219.35C7872.11,3219.35 7775.23,3594.12 7419.26,3594.12C7123.98,3594.12 6853.11,3361.84 6557.84,3361.84C6262.56,3361.84 6173.75,3590.41 6173.75,3651.21C6173.75,3737.85 6251.1,3783.26 6311.43,3783.26C6340.04,3783.26 6308.66,3765.54 6308.66,3717.87C6308.66,3641.62 6459.24,3466.01 6621.54,3466.01C6829.13,3466.01 7243.62,3689.16 7440.86,3689.16C7729.49,3689.16 7937.69,3508.32 7937.69,3299.56Z" style="fill:rgb(26,255,127);fill-rule:nonzero;"/>
                        </g>
                        <g transform="matrix(-2.08333,-6.06642e-16,1.89556e-16,-2.08333,28623.2,13881.9)">
                            <path d="M7937.69,3219.56C7937.69,3094.48 7757.09,3011.73 7665.1,3011.73C7466.55,3011.73 7101.99,4087.19 7101.99,4285.74C7101.99,4355.64 7176.64,4457.82 7249.66,4457.82C7322.68,4457.82 7418.07,4411.24 7418.07,4389.59C7418.07,4367.94 7249.66,4445.96 7249.66,4349.08C7249.66,4294.1 7545.73,3139.35 7764.12,3139.35C7872.11,3139.35 7716.61,3663.19 7360.63,3663.19C7065.36,3663.19 7184.99,3758.24 7382.24,3758.24C7670.86,3758.24 7937.69,3428.32 7937.69,3219.56Z" style="fill:rgb(26,255,127);fill-rule:nonzero;"/>
                        </g>
                        <g transform="matrix(2.08333,0,0,2.08333,7543.85,-2904.95)">
                            <path d="M6662.47,3834.04C6568.18,3834.04 6435.54,4199.6 6435.54,4293.89C6435.54,4388.17 6471.45,4457.82 6558.46,4457.82C6727.24,4457.82 6853.99,4111.31 6853.99,4099.98C6853.99,4013.63 6653.03,4401.11 6595.15,4401.11C6506.01,4401.11 6725.98,3911.36 6749.88,3911.36C6787.42,3911.36 6714.31,3834.04 6662.47,3834.04Z" style="fill:rgb(26,255,127);"/>
                        </g>
                        <g transform="matrix(2.08333,0,0,2.08333,7543.85,-2904.95)">
                            <path d="M5636.03,3579.5C5636.03,3532.45 5479.19,3404.01 5398.1,3404.01C5070.76,3404.01 4884.72,4154.84 4884.72,4322.75C4884.72,4490.66 5024.48,4593.43 5122.41,4593.43C5312.68,4593.43 5531.17,4160.49 5531.17,4024.28C5531.17,3888.07 5329.93,4543.05 5131.78,4543.05C4833.56,4543.05 5263.65,3496.05 5437.16,3496.05C5610.67,3496.05 5414.81,3716.73 5241.3,3716.73C5037.47,3716.73 4672.95,3346.55 4184.58,3346.55C4004.79,3346.55 3887.65,3503.22 3887.65,3553.28C3887.65,3658.11 3962.92,3686.15 4058.55,3686.15C4101.03,3686.15 4048.76,3662.29 4048.76,3639.55C4048.76,3545.96 4173.68,3477.16 4346.83,3477.16C4651.4,3477.16 5056.04,3809.22 5277.06,3809.22C5523.76,3809.22 5636.03,3652.4 5636.03,3579.5Z" style="fill:rgb(26,255,127);fill-rule:nonzero;"/>
                        </g>
                        <g transform="matrix(2.08333,0,0,2.08333,7543.85,-2904.95)">
                            <path d="M5544.62,3890.02C5313.15,3890.02 5265.98,5580.75 4675.23,5580.75C4329.58,5580.75 4257.76,4905.57 5048.01,4905.57C5576.66,4905.57 6128.02,5264.93 6855.62,5264.93C7063.71,5264.93 7325.18,5068.18 7325.18,4890.02C7325.18,4568.15 7284.95,5097.9 6836.6,5097.9C6135.04,5097.9 5531.96,4717.56 5103.12,4717.56C4463.76,4717.56 4335.04,5073.98 4335.04,5302.71C4335.04,5450.39 4507.44,5673.96 4761.84,5673.96C5410.26,5673.96 5596.19,3938.48 5636.03,3938.48C5694.43,3938.48 5586.35,3890.02 5544.62,3890.02Z" style="fill:rgb(26,255,127);fill-rule:nonzero;"/>
                        </g>
                        <g transform="matrix(2.08333,0,0,2.08333,7543.85,-2904.95)">
                            <path d="M5972.9,3901.39C5972.9,3775.63 5940.51,3679.15 5844.41,3679.15C5787.88,3679.15 5680.85,3774.15 5680.85,3846.52C5680.85,4047.41 5880.11,4152.23 5880.11,4204.53C5880.11,4230.65 5801.07,4363.64 5801.07,4394.52C5801.07,4448.65 5869.1,4520.82 5948.58,4520.82C6058.7,4520.82 6203.53,4215.21 6203.53,4105.1C6203.53,3994.99 6041.77,4477.72 5964.09,4477.72C5862.89,4477.72 6041.39,4241.84 6041.39,4209.89C6041.39,4154.63 5824.32,3976.21 5824.32,3853.2C5824.32,3776.71 5915.18,3691.88 5915.18,3890.02C5915.18,4054.93 5620.84,4446.19 5620.84,4470.72C5620.84,4485.16 5628.44,4492.4 5636.03,4492.4C5659.87,4492.4 5972.9,4014.93 5972.9,3901.39Z" style="fill:rgb(26,255,127);fill-rule:nonzero;"/>
                        </g>
                        <g transform="matrix(2.08333,0,0,2.08333,7543.85,-2904.95)">
                            <path d="M6408.69,3834.04C6227.23,3834.04 6103.01,4192.94 6103.01,4267.81C6103.01,4342.68 6176.88,4457.82 6275.44,4457.82C6396.02,4457.82 6581.38,4072.16 6581.38,3993.65C6581.38,3915.15 6398.72,4405.86 6275.72,4405.86C6152.73,4405.86 6366.78,3954.17 6439.76,3954.17C6512.75,3954.17 6557.45,4153.73 6557.45,3984.04C6557.45,3951.27 6440.85,3834.04 6408.69,3834.04Z" style="fill:rgb(26,255,127);"/>
                        </g>
                        <g transform="matrix(3.29536,0,0,3.29536,-6759.53,-18275.2)">
                            <path d="M6144.06,7321.42C6407.81,7321.42 6535.59,7889.88 6754.9,7889.88C6928.48,7889.88 6953.64,7836.89 6969.57,7836.89C6985.49,7836.89 6969.54,8024.4 6785.34,8024.4C6444.31,8024.4 6377.16,7436.37 6144.06,7436.37C6023.59,7436.37 6085.38,7321.42 6144.06,7321.42Z" style="fill:rgb(26,255,127);"/>
                        </g>
                        <g transform="matrix(2.08333,0,0,2.08333,7543.85,-2904.95)">
                            <path d="M4082.58,3903.52C4082.58,3878.32 4031.59,3858.35 3999.23,3858.35C3926.04,3858.35 3768.91,4200.65 3768.91,4523.49C3768.91,4587.72 3853.04,4621.44 3895.3,4621.44C4000.81,4621.44 4184.58,4403.95 4184.58,4298.44C4184.58,4073.6 3972.97,4541.6 3935.97,4541.6C3882.96,4541.6 4082.58,3935.73 4082.58,3903.52Z" style="fill:rgb(26,255,127);"/>
                        </g>
                        <g transform="matrix(2.08333,0,0,2.08333,7793.85,-2863.29)">
                            <path d="M6297.46,3203.25C6094,3203.25 5881.07,3399.29 5881.07,3467.61C5881.07,3535.93 5980.66,3587.5 6008.69,3587.5C6036.71,3587.5 6005.61,3574.24 6005.61,3546.22C6005.61,3502.55 6186.96,3288.27 6435.54,3288.27C6473.83,3288.27 6519.38,3310.84 6519.38,3292.89C6519.38,3283.26 6475.3,3203.25 6297.46,3203.25Z" style="fill:rgb(26,255,127);"/>
                        </g>
                        <g transform="matrix(-2.08333,-2.55135e-16,2.55135e-16,-2.08333,34831.1,14308.7)">
                            <path d="M6297.46,3203.25C6094,3203.25 5881.07,3399.29 5881.07,3467.61C5881.07,3535.93 5980.66,3587.5 6008.69,3587.5C6036.71,3587.5 6005.61,3574.24 6005.61,3546.22C6005.61,3502.55 6186.96,3288.27 6435.54,3288.27C6473.83,3288.27 6519.38,3310.84 6519.38,3292.89C6519.38,3283.26 6475.3,3203.25 6297.46,3203.25Z" style="fill:rgb(26,255,127);"/>
                        </g>
                        <g transform="matrix(-2.08333,5.78923e-16,-7.24334e-16,-2.08333,28745.9,14287.9)">
                            <path d="M6297.46,3203.25C6094,3203.25 5881.07,3399.29 5881.07,3467.61C5881.07,3535.93 5980.66,3587.5 6008.69,3587.5C6036.71,3587.5 6005.61,3574.24 6005.61,3546.22C6005.61,3502.55 6186.96,3288.27 6435.54,3288.27C6473.83,3288.27 6519.38,3310.84 6519.38,3292.89C6519.38,3283.26 6475.3,3203.25 6297.46,3203.25Z" style="fill:rgb(26,255,127);"/>
                        </g>
                        <g transform="matrix(2.6155,2.2548e-31,1.58524e-31,2.6155,-2707.36,-4570.13)">
                            <path d="M6297.46,3203.25C6094,3203.25 5881.07,3399.29 5881.07,3467.61C5881.07,3535.93 5980.66,3587.5 6008.69,3587.5C6036.71,3587.5 6005.61,3574.24 6005.61,3546.22C6005.61,3502.55 6186.96,3288.27 6435.54,3288.27C6473.83,3288.27 6519.38,3310.84 6519.38,3292.89C6519.38,3283.26 6475.3,3203.25 6297.46,3203.25Z" style="fill:rgb(26,255,127);"/>
                        </g>
                        <g transform="matrix(2.08333,0,0,2.08333,7543.85,-2904.95)">
                            <path d="M5007.09,2953.32C4885.42,2953.32 4468.48,4382.48 4468.48,4470.72C4468.48,4514.2 4515.03,4593.43 4574.42,4593.43C4658.98,4593.43 4721.33,4553.99 4710.74,4553.99C4700.15,4553.99 4637.11,4515.6 4637.11,4470.72C4637.11,4369.63 5091.8,3020.7 5107.85,3020.7C5123.9,3020.7 5066.73,2953.32 5007.09,2953.32Z" style="fill:rgb(26,255,127);"/>
                        </g>
                        <path d="M17151.2,5277.59C17151.2,5249.23 16999.5,5089.88 16848.3,5089.88C16320,5089.88 15999.2,5996.55 15999.2,6239.94C15999.2,6483.34 16220.8,6664.19 16406.9,6664.7C16858.5,6665.94 17151.2,5393.05 17151.2,5277.59ZM16954.6,5270.06C16677.9,5270.06 16347.1,6189.05 16347.1,6328.81C16347.1,6468.57 16409.2,6559.73 16488,6559.73C16717.8,6559.73 17055.1,5471.75 17055.1,5398.5C17055.1,5325.25 17015.1,5270.06 16954.6,5270.06Z" style="fill:rgb(26,255,127);"/>
                        <path d="M15274.9,5195.94C15003.3,5195.94 14616.8,5736.96 14616.8,6300.74C14616.8,6585.37 14762.2,6762.96 14900.9,6762.96C15114.1,6762.96 15659.1,5629.91 15659.1,5572.22C15659.1,5514.53 15454.4,5195.94 15274.9,5195.94ZM15378.4,5406.83C15229.4,5406.83 14835.1,6518.98 14931.1,6518.98C14970,6518.98 15587.9,5639.96 15587.9,5601.09C15587.9,5562.23 15442.8,5406.83 15378.4,5406.83Z" style="fill:rgb(26,255,127);"/>
                    </g>
                </g>
            </g>
        </g>
    </g>
</svg>
